<?xml version="1.0" encoding="UTF-8" standalone="no"?>
<!-- Created with Inkscape (http://www.inkscape.org/) -->
<svg id="svg2985" xmlns:rdf="http://www.w3.org/1999/02/22-rdf-syntax-ns#" xmlns="http://www.w3.org/2000/svg" height="736.37" width="736.37" version="1.1" xmlns:cc="http://creativecommons.org/ns#" xmlns:xlink="http://www.w3.org/1999/xlink" xmlns:dc="http://purl.org/dc/elements/1.1/">
 <metadata id="metadata2991">
  <rdf:RDF>
   <cc:Work rdf:about="">
    <dc:format>image/svg+xml</dc:format>
    <dc:type rdf:resource="http://purl.org/dc/dcmitype/StillImage"/>
    <dc:title/>
   </cc:Work>
  </rdf:RDF>
 </metadata>
 <defs id="defs2989">
  <radialGradient id="radialGradient3038" gradientUnits="userSpaceOnUse" cy="217.19" cx="419.35" gradientTransform="matrix(.76481 .51336 -.27157 .40459 157.37 17.832)" r="342.71">
   <stop id="stop3945" stop-color="#727272" offset="0"/>
   <stop id="stop3953" stop-color="#686868" offset=".27273"/>
   <stop id="stop3947" stop-color="#505050" offset="1"/>
  </radialGradient>
 </defs>
 <path id="path3803" d="m42.234 287.72s1.3324 24.287 24.733 49.169c26.857 28.556 113.67 64.523 171.64 105.49 39.461 27.885 81.259 66.523 118.6 102.51 39.921 38.472 122.61 63.385 185.65 57.214 62.313-6.099 175.54-64.824 172.19-157.71-1.87-52.06-89.18-163.98-174.95-233.66-95.17-77.327-278.7-86.87-342.45-70.826-75.06 18.89-157.46 87.106-155.41 147.82z" stroke="#000" stroke-width="12.5" fill="url(#radialGradient3038)"/>
 <path id="path3807" d="m111.67 182.53s220.06 30.601 227.66 14c6.8508-14.966-48.97-42.6-129.44-44.719m-32.375 0.53125c-6.1593 0.36638-14.541 1.7452-20.888 2.4366" stroke="#000" stroke-width="6.25" fill="none"/>
 <path id="path3801" d="m42.83 286.23s-4.4479 22.581 44.103 31.885c143.2 27.44 174.62 50.573 222 74.796 47.383 24.222 92.273 54.102 114.98 89.576 21.682 33.872 16.814 77.139-17.537 94.284" stroke="#000" stroke-width="9.375" fill="none"/>
 <path id="path3805" d="m309.01 393.3c-8.0458 11.324-21.367 24.74-32.41 18.824-43.84-23.48-67.31-33.53-106.42-47.73-32.05-11.64-31.71-35.4-31.71-35.4" stroke="#000" stroke-width="9.375" fill="none"/>
 <path id="path3809" style="color:#000000" d="m264.62 176.27a5.5675 9.6378 68.704 1 1 -17.149 0 5.5675 9.6378 68.704 1 1 17.149 0z" stroke="#000" stroke-width="6.25" fill="#808080"/>
 <path id="path3811" d="m266.32 188.22c-0.89287-3.1921 15.198-17.5 25.031-17.766 9.8337-0.26516 36.455 17.578 33.971 20.417-2.4629 2.8148-58.004 0.91769-59.002-2.6516z" stroke="#000" stroke-width="6.25" fill="none"/>
 <path id="path3813" stroke-width="9.375" stroke="#000" d="m89.615 198.62-84.928-34.269v-14.602l95.655 39.633"/>
 <path id="path3821" d="m212.22 349.85c-1.0536 10.395-1.2643 20.79 0 30.553" stroke="#000" stroke-width="9.375" fill="none"/>
 <g id="g3907" transform="matrix(1.3437 0 0 1.3437 -197.37 -33.586)" stroke="#000" stroke-width="6.9768" fill="#d9f2f2">
  <path id="path3833" style="color:#000000" d="m539.22 313.34c-14.663-0.3514-19.887 22.088-7.75 29.25 10.097 8.9596 28.655-2.5224 24.625-15.656-1.3502-7.8103-8.8921-14.071-16.875-13.594z"/>
  <path id="path3837" style="color:#000000" d="m601.91 314.22c-15.654 0.99942-23.881 19.598-19.75 33.438 2.5122 14.815 17.456 28.995 33.125 24.312 15.624-5.6514 19.06-26.505 12.125-40.062-4.5716-9.7284-14.114-18.318-25.5-17.688zm4.1875 24.469c4.2661 0.0772 5.6916 9.8135 0.8125 8.9375-2.7488-1.2745-4.8667-8.3346-0.8125-8.9375z"/>
  <path id="path3823" style="color:#000000" d="m566.09 272.81c-12.501-0.28498-17.982 17.775-9.3438 25.875 0.67212 3.3821 5.4476 4.5421 5.6875 7.875-9.8723 17.226-9.1845 39.403-1.7812 57.438-8.0296 4.9007-17.38 13.603-14 24.062 3.5128 11.04 19.77 12.655 26.875 4.0938 2.0881-1.4275 3.663-5.9277 5.8438-1.9375 15.177 14.041 42.239 17.106 57.375 1.5 19.994-19.121 19.764-51.958 6.9375-75.125-10.017-18.999-31.185-34.628-53.5-30.656-2.8064 1.0224-5.8445 2.2538-6.75-1.625-3.7345-6.1023-9.4907-12.336-17.344-11.5zm34.812 39c21.941 1.0293 34.728 27.102 28.969 46.688-2.9256 10.676-14.115 20.024-25.469 15.75-22.594-6.8244-32.316-40.245-15.656-57.312 3.2348-3.1548 7.6468-5.1563 12.156-5.125z"/>
 </g>
 <path id="path3857" d="m157.16 170.01s-9.1804 4.5359-6.9557 9.5821c1.8241 4.1375 9.4611 6.6054 15.554 7.3877 31.185 4.0035 53.918-2.1806 68.654-14.539 16.622-13.94-14.711-15.803-14.711-15.803" stroke="#000" stroke-width="6.25" fill="none"/>
 <path id="path3859" d="m151.97 181.64c10.25-34.199 53.67-47.58 83.46-10.474" stroke="#000" stroke-width="6.25" fill="none"/>
 <path id="path3861" d="m156.44 184.4c6.2526-19.691 36.314-16.509 51.673 0.47035" stroke="#000" stroke-width="6.25" fill="none"/>
 <path id="path3955" d="m176.95 170.84c-9.4273 0.1133-17.6 4.3323-20.531 13.562 0.002 0.0524-0.002 0.10406 0 0.15625 2.891 1.223 6.3103 2.0168 9.3438 2.4062 16.423 2.1084 30.48 1.3938 42.281-1.5625 0.0224-0.17829 0.0432-0.35045 0.0625-0.53125-8.1596-9.0203-20.472-14.16-31.156-14.031z" stroke="#000" stroke-width="6.25" fill="#d9f2f3"/>
</svg>
