<?xml version="1.0" encoding="UTF-8" standalone="no"?>
<!-- Created with Inkscape (http://www.inkscape.org/) -->
<svg id="svg2985" xmlns:rdf="http://www.w3.org/1999/02/22-rdf-syntax-ns#" xmlns="http://www.w3.org/2000/svg" height="534" width="745" version="1.1" xmlns:cc="http://creativecommons.org/ns#" xmlns:xlink="http://www.w3.org/1999/xlink" xmlns:dc="http://purl.org/dc/elements/1.1/">
 <metadata id="metadata2991">
  <rdf:RDF>
   <cc:Work rdf:about="">
    <dc:format>image/svg+xml</dc:format>
    <dc:type rdf:resource="http://purl.org/dc/dcmitype/StillImage"/>
    <dc:title/>
   </cc:Work>
  </rdf:RDF>
 </metadata>
 <defs id="defs2989">
  <radialGradient id="radialGradient3949" gradientUnits="userSpaceOnUse" cy="217.19" cx="419.35" gradientTransform="matrix(.76481 .51336 -.27157 .40459 152.39 -64.575)" r="342.71">
   <stop id="stop3945" stop-color="#666" offset="0"/>
   <stop id="stop3953" stop-color="#5c5c5c" offset=".27273"/>
   <stop id="stop3947" stop-color="#363636" offset="1"/>
  </radialGradient>
 </defs>
 <path id="path3803" d="m37.249 205.32s1.3324 24.287 24.733 49.169c26.857 28.556 113.67 64.523 171.64 105.49 39.461 27.885 81.259 66.523 118.6 102.51 39.921 38.472 122.61 63.385 185.65 57.214 62.32-6.1 175.54-64.83 172.19-157.72-1.88-52.05-89.19-163.97-174.95-233.65-95.17-77.329-278.71-86.873-342.46-70.828-75.05 18.889-157.46 87.108-155.4 147.82z" stroke="#000" stroke-width="12.5" fill="url(#radialGradient3949)"/>
 <path id="path3807" d="m106.69 100.12s220.06 30.601 227.66 14c6.8508-14.966-48.97-42.6-129.44-44.719m-32.375 0.53125c-6.1593 0.36638-14.541 1.7452-20.888 2.4366" stroke="#000" stroke-width="6.25" fill="none"/>
 <path id="path3801" d="m37.845 203.83s-4.4479 22.581 44.103 31.885c143.2 27.44 174.62 50.573 222 74.796 47.383 24.222 92.273 54.102 114.98 89.576 21.682 33.872 16.814 77.139-17.537 94.284" stroke="#000" stroke-width="12.5" fill="none"/>
 <path id="path3805" d="m304.02 310.89c-8.0458 11.324-21.367 24.74-32.41 18.824-43.83-23.47-67.3-33.52-106.41-47.72-32.05-11.64-31.72-35.4-31.72-35.4" stroke="#000" stroke-width="6.25" fill="none"/>
 <path id="path3809" style="color:#000000" d="m260.74 93.867a9.6847 8.0458 0 1 1 -19.369 0 9.6847 8.0458 0 1 1 19.369 0z" transform="matrix(.88538 0 -.41595 .77778 67.821 20.859)" stroke="#000" stroke-width="7.5316" fill="#808080"/>
 <path id="path3811" d="m261.34 105.82c-0.89287-3.1921 15.198-17.5 25.031-17.766 9.8337-0.26516 36.455 17.578 33.971 20.417-2.4629 2.8148-58.004 0.91769-59.002-2.6516z" stroke="#000" stroke-width="6.25" fill="none"/>
 <path id="path3813" d="m84.629 116.22-84.927-34.269v-14.602l95.655 39.633" stroke="#000" stroke-width="6.25"/>
 <path id="path3821" d="m207.24 267.45c-1.0536 10.395-1.2643 20.79 0 30.553" stroke="#000" stroke-width="6.25" fill="none"/>
 <g id="g3907" stroke="#000" stroke-width="6.25" fill="#d9f2f2">
  <path id="path3823" style="color:#000000" d="m566.09 274.81c-11.143-0.11809-15.265 15.938-7.5938 22.812 0.86005 3.7648 7.1709 5.6488 5.8125 9.6562-9.9502 17.328-9.0598 39.519-1.0938 57.438-7.462 4.8318-17.522 11.901-14.812 22.219 2.6628 9.6895 16.903 11.655 22.969 4.2188 2.4499-1.0825 4.007-5.0961 6.625-5.0938 13.798 15.034 40.627 20.142 56.469 5.0312 18.675-16.707 19.927-46.107 10.156-67.938-8.4425-20.203-28.581-37.875-51.656-35.688-2.9622 0.28099-6.1056 1.8574-8.8438 1.8438-3.9485-6.6062-8.9402-15.392-18.031-14.5zm34.812 35c20.704 0.6059 33.816 22.941 32.219 42.125-0.61601 12.738-11.104 27.212-25.312 25.094-21.409-3.1028-33.655-28.662-28.031-48.656 2.6556-9.5719 10.528-18.557 21.125-18.562z"/>
  <path id="path3833" style="color:#000000" d="m539.22 315.34c-12.596-0.2111-17.137 18.904-6.9062 25.312 8.723 8.3121 25.23-1.4896 21.844-13.188-1.0936-6.9642-7.8416-12.584-14.938-12.125z"/>
  <path id="path3837" style="color:#000000" d="m601.91 314.22c-15.654 0.99942-23.881 19.598-19.75 33.438 2.5122 14.815 17.456 28.995 33.125 24.312 15.624-5.6514 19.06-26.505 12.125-40.062-4.5716-9.7284-14.114-18.318-25.5-17.688zm4.1875 24.469c4.2661 0.0772 5.6916 9.8135 0.8125 8.9375-2.7488-1.2745-4.8667-8.3346-0.8125-8.9375z"/>
 </g>
 <path id="path3857" d="m152.17 87.6s-9.1804 4.5359-6.9557 9.5821c1.8241 4.1375 9.4611 6.6054 15.554 7.3877 31.185 4.0035 53.918-2.1806 68.654-14.539 16.622-13.94-14.711-15.803-14.711-15.803" stroke="#000" stroke-width="6.25" fill="none"/>
 <path id="path3859" d="m146.99 99.23c10.24-34.199 53.66-47.581 83.45-10.474" stroke="#000" stroke-width="6.25" fill="none"/>
 <path id="path3861" d="m151.45 101.99c6.2526-19.691 36.314-16.509 51.673 0.47035" stroke="#000" stroke-width="6.25" fill="none"/>
 <path id="path3955" d="m171.97 88.438c-9.43 0.113-17.6 4.332-20.53 13.562v0.16c2.89 1.22 6.31 2.01 9.34 2.4 16.42 2.11 30.48 1.4 42.28-1.56 0.02-0.18 0.05-0.35 0.06-0.53-8.15-9.022-20.47-14.161-31.15-14.032z" stroke="#000" stroke-width="6.25" fill="#d9f2f3"/>
</svg>
